HIERARCHY
ROOT Hips
{
	OFFSET 0.00000 0.00000 0.00000
	CHANNELS 6 Xposition Yposition Zposition Zrotation Yrotation Xrotation 
	JOINT LHipJoint
	{
		OFFSET 0 0 0
		CHANNELS 3 Zrotation Yrotation Xrotation
		JOINT LeftHip
		{
			OFFSET 1.44960 -1.75505 0.85172
			CHANNELS 3 Zrotation Yrotation Xrotation
			JOINT LeftKnee
			{
				OFFSET 2.40573 -6.60971 0.00000
				CHANNELS 3 Zrotation Yrotation Xrotation
				JOINT LeftAnkle
				{
					OFFSET 2.58773 -7.10974 0.00000
					CHANNELS 3 Zrotation Yrotation Xrotation
					JOINT LeftToe
					{
						OFFSET 0.18252 -0.50147 1.77316
						CHANNELS 3 Zrotation Yrotation Xrotation
						End Site
						{
							OFFSET 0.00000 -0.00000 0.92990
						}
					}
				}
			}
		}
	}
	JOINT RHipJoint
	{
		OFFSET 0 0 0
		CHANNELS 3 Zrotation Yrotation Xrotation
		JOINT RightHip
		{
			OFFSET -1.40744 -1.75505 0.85172
			CHANNELS 3 Zrotation Yrotation Xrotation
			JOINT RightKnee
			{
				OFFSET -2.43714 -6.69600 0.00000
				CHANNELS 3 Zrotation Yrotation Xrotation
				JOINT RightAnkle
				{
					OFFSET -2.51650 -6.91404 0.00000
					CHANNELS 3 Zrotation Yrotation Xrotation
					JOINT RightToe
					{
						OFFSET -0.25383 -0.69740 1.96384
						CHANNELS 3 Zrotation Yrotation Xrotation
						End Site
						{
							OFFSET -0.00000 -0.00000 1.04244
						}
					}
				}
			}
		}
	}
	JOINT lowerback
	{
		OFFSET 0 0 0
		CHANNELS 3 Zrotation Yrotation Xrotation
		JOINT Chest
		{
			OFFSET 0.00579 2.14458 -0.24367
			CHANNELS 3 Zrotation Yrotation Xrotation
			JOINT Chest2
			{
				OFFSET 0.05899 2.16316 -0.04515
				CHANNELS 3 Zrotation Yrotation Xrotation
				JOINT lowerneck
				{
					OFFSET 0 0 0
					CHANNELS 3 Zrotation Yrotation Xrotation
					JOINT Neck
					{
						OFFSET -0.01650 1.59577 0.24841
						CHANNELS 3 Zrotation Yrotation Xrotation
						JOINT Head
						{
							OFFSET -0.01016 1.63072 -0.17782
							CHANNELS 3 Zrotation Yrotation Xrotation
							End Site
							{
								OFFSET -0.00250 1.64111 -0.08717
							}
						}
					}
				}
				JOINT LeftCollar
				{
					OFFSET 0 0 0
					CHANNELS 3 Zrotation Yrotation Xrotation
					JOINT LeftShoulder
					{
						OFFSET 3.17745 0.95174 -0.45729
CHANNELS 3 Zrotation Xrotation Yrotation
						JOINT LeftElbow
						{
OFFSET 0 -4.934850 0.000000
CHANNELS 3 Zrotation Xrotation Yrotation
							JOINT LeftWrist
							{
OFFSET 0 -3.417190 -0.000000
CHANNELS 3 Zrotation Xrotation Yrotation
								JOINT lhand
								{
									OFFSET 0 0 0
CHANNELS 3 Zrotation Xrotation Yrotation
									JOINT LFingers
									{
OFFSET 0 -0.624100 -0.000000
CHANNELS 3 Zrotation Xrotation Yrotation
										End Site
										{
OFFSET 0 -0.503170 -0.000000
										}
									}
								}
								JOINT LThumb
								{
OFFSET 0 0.000000 0.000000
CHANNELS 3 Zrotation Xrotation Yrotation
									End Site
									{
OFFSET 0 -0.510850 0.510850
									}
								}
							}
						}
					}
				}
				JOINT RightCollar
				{
					OFFSET 0 0 0
					CHANNELS 3 Zrotation Yrotation Xrotation
					JOINT RightShoulder
					{
						OFFSET -2.87924 1.13038 -0.75204
CHANNELS 3 Zrotation Xrotation Yrotation
						JOINT RightElbow
						{
OFFSET 0 -5.220340 0.000000
CHANNELS 3 Zrotation Xrotation Yrotation
							JOINT RightWrist
							{
OFFSET 0 -3.418090 -0.000000
CHANNELS 3 Zrotation Xrotation Yrotation
								JOINT rhand
								{
									OFFSET 0 0 0
CHANNELS 3 Zrotation Xrotation Yrotation
									JOINT RFingers
									{
OFFSET 0 -0.775340 -0.000000
CHANNELS 3 Zrotation Xrotation Yrotation
										End Site
										{
OFFSET 0 -0.625100 -0.000000
										}
									}
								}
								JOINT RThumb
								{
OFFSET 0 0.000000 0.000000
CHANNELS 3 Zrotation Xrotation Yrotation
									End Site
									{
OFFSET 0 -0.634640 0.634640
									}
								}
							}
						}
					}
				}
			}
		}
	}
}
MOTION
Frames: 12
Frame Time: 0.008333333333333333
0.947638 17.602963 -16.204259 -2.697402 7.024665 5.545132 0.000000 0.000000 0.000000 -16.263020 -6.914321 1.917175 5.505432 13.926689 42.953898 0.187392 -3.287541 10.067105 0.191113 2.813712 7.760566 0.000000 0.000000 0.000000 25.150367 5.777049 -19.015305 -0.963367 -6.249351 17.509724 0.092764 -7.400608 -8.097359 -0.844942 -5.862371 16.385744 1.592723 -2.024687 4.310881 4.311309 -2.538122 0.608044 3.692870 -1.266710 -1.664080 -3.741505 -1.414132 -15.833455 -0.684675 -0.812931 22.031394 0.283967 -0.768322 9.606496 0.000000 0.000000 0.000000 0.680143 5.505240 -25.929559 13.596348 -22.153950 2.674531 -5.430952 10.894467 -42.362783 0.000000 0.000000 0.000000 -7.125000 0.000000 0.000000 -53.566891 64.414027 28.959264 0.000000 0.000000 0.000000 -4.424876 3.219260 -31.670406 -5.453606 -9.347843 -0.446217 -15.363554 13.728544 -15.498823 0.000000 0.000000 0.000000 7.125000 0.000000 0.000000 8.258871 14.053883 6.070806
0.926733 17.609194 -16.049777 -2.833677 7.560755 5.289656 0.000000 0.000000 0.000000 -15.695496 -7.084810 0.605080 6.141966 14.562917 45.545847 0.143072 -3.529055 9.334919 0.245280 3.183633 8.790562 0.000000 0.000000 0.000000 25.653989 4.389377 -18.488663 -0.943952 -6.187770 17.330233 0.056747 -6.736887 -8.047170 -0.659717 -5.188408 14.448187 1.829990 -1.998897 4.398341 4.184181 -2.485325 0.503090 3.431309 -1.240638 -1.839598 -3.377404 -1.599405 -15.492749 -0.881886 -1.135424 21.931139 0.116588 -0.907593 9.507967 0.000000 0.000000 0.000000 1.105935 5.235059 -26.977266 13.936037 -22.643155 2.803487 -5.619949 10.699924 -42.794399 0.000000 0.000000 0.000000 -7.125000 0.000000 0.000000 -54.427724 64.627957 29.807302 0.000000 0.000000 0.000000 -4.024528 2.932116 -32.829038 -5.359907 -9.190464 -0.431135 -15.431778 14.471689 -16.443060 0.000000 0.000000 0.000000 7.125000 0.000000 0.000000 8.229503 13.085144 6.218449
0.892184 17.618689 -15.895149 -3.373561 7.771808 5.009432 0.000000 0.000000 0.000000 -14.566030 -6.866228 -1.156618 6.757126 15.122181 47.946615 0.090798 -4.405497 8.941732 0.264530 3.302214 9.121984 0.000000 0.000000 0.000000 26.506013 4.279527 -17.582086 -0.931377 -6.147532 17.213189 0.051343 -6.944971 -8.561259 -0.654848 -5.174666 14.407773 2.179814 -1.965430 4.459851 4.349252 -2.416510 0.505214 3.405089 -1.207931 -1.882204 -3.841188 -1.521455 -15.278711 -0.397929 -1.035677 21.734207 0.375635 -0.842052 9.403496 0.000000 0.000000 0.000000 1.205266 4.797699 -27.569751 14.291736 -23.150204 2.941860 -5.349248 10.511909 -43.031090 0.000000 0.000000 0.000000 -7.125000 0.000000 0.000000 -54.585859 64.850125 30.184632 0.000000 0.000000 0.000000 -3.922131 2.530672 -30.831330 -5.523230 -9.464687 -0.457611 -15.200724 12.794360 -16.431814 0.000000 0.000000 0.000000 7.125000 0.000000 0.000000 8.382978 13.118832 6.331110
0.865634 17.622120 -15.744796 -3.753307 7.721208 4.689677 0.000000 0.000000 0.000000 -13.761033 -6.628260 -2.385980 7.307346 15.583195 50.023661 0.011422 -5.306206 7.916767 0.366026 3.883634 10.749906 0.000000 0.000000 0.000000 27.122535 4.566397 -16.402081 -0.905194 -6.063053 16.967532 0.056198 -7.322198 -9.048028 -0.600787 -4.961490 13.798776 2.425572 -1.819168 4.549652 4.352680 -2.200308 0.427272 3.263734 -1.101125 -2.031577 -3.579416 -1.778546 -15.320004 -0.642528 -1.395647 22.140411 0.200485 -1.019951 9.556207 0.000000 0.000000 0.000000 1.422430 4.493894 -27.910926 14.594831 -23.577747 3.062558 -4.888563 10.974717 -42.397319 0.000000 0.000000 0.000000 -7.125000 0.000000 0.000000 -53.135396 64.593331 28.867391 0.000000 0.000000 0.000000 -3.766840 2.357973 -29.797357 -5.517624 -9.455248 -0.456721 -15.382099 12.041765 -16.341642 0.000000 0.000000 0.000000 7.125000 0.000000 0.000000 8.260310 13.193268 6.223456
0.839691 17.628314 -15.579858 -3.826798 7.901738 4.371762 0.000000 0.000000 0.000000 -13.268853 -6.417133 -3.608624 7.783639 15.956416 51.777289 -0.050599 -5.836095 6.516275 0.494932 4.499817 12.488955 0.000000 0.000000 0.000000 27.447203 4.240116 -15.411897 -0.890483 -6.014787 16.827462 0.036838 -7.338659 -9.581396 -0.709214 -5.377237 14.988996 2.347002 -1.803996 4.394206 4.365862 -2.199080 0.566032 3.311632 -1.100243 -1.797992 -3.729813 -1.833453 -15.446458 -0.613481 -1.431515 22.306790 0.229376 -1.047887 9.641427 0.000000 0.000000 0.000000 1.416702 3.792231 -28.096054 15.025309 -24.181152 3.236444 -4.109701 11.100832 -42.532840 0.000000 0.000000 0.000000 -7.125000 0.000000 0.000000 -52.670061 64.903051 28.905860 0.000000 0.000000 0.000000 -3.755220 1.767438 -28.033201 -5.583572 -9.565711 -0.467649 -15.740255 10.639655 -16.498820 0.000000 0.000000 0.000000 7.125000 0.000000 0.000000 8.024906 12.998132 6.075440
0.822441 17.635683 -15.426228 -3.525725 7.707630 4.026004 0.000000 0.000000 0.000000 -13.372257 -6.143167 -4.561780 8.167561 16.241026 53.163767 -0.084580 -5.663905 4.570506 0.798818 5.700834 15.919745 0.000000 0.000000 0.000000 27.327593 3.890383 -14.530827 -0.893720 -6.025474 16.858320 -0.009101 -7.082109 -10.309989 -0.781058 -5.642220 15.749837 1.951374 -1.567977 4.553458 4.224466 -1.894742 0.469209 3.377079 -0.945447 -1.990847 -3.997979 -1.964306 -15.321227 -0.449414 -1.583355 22.967017 0.310121 -1.129669 9.859419 0.000000 0.000000 0.000000 1.481910 3.501888 -28.546468 15.437257 -24.751584 3.406970 -4.248648 10.396441 -43.087266 0.000000 0.000000 0.000000 -7.125000 0.000000 0.000000 -53.715291 65.206673 29.988367 0.000000 0.000000 0.000000 -3.807122 1.385539 -29.361402 -5.413752 -9.280882 -0.439739 -15.702870 11.813708 -17.146100 0.000000 0.000000 0.000000 7.125000 0.000000 0.000000 8.065119 12.341604 6.218349
0.787076 17.629494 -15.276113 -4.026681 7.618114 3.741887 0.000000 0.000000 0.000000 -12.351729 -5.774817 -5.938562 8.529321 16.494742 54.446955 -0.073598 -4.972767 3.071698 0.753528 5.542964 15.464285 0.000000 0.000000 0.000000 28.155970 4.059115 -13.615867 -0.898618 -6.041490 16.904791 -0.028522 -7.338321 -11.084221 -0.876085 -5.966568 16.687727 2.177028 -1.367049 4.449739 4.254392 -1.625172 0.585989 3.259218 -0.812678 -1.829753 -3.541279 -2.035656 -15.591197 -0.816582 -1.690726 23.504131 0.085742 -1.187522 10.096170 0.000000 0.000000 0.000000 1.660955 2.885704 -28.753931 15.979968 -25.493297 3.637497 -2.485662 10.859530 -42.496284 0.000000 0.000000 0.000000 -7.125000 0.000000 0.000000 -51.156356 65.353757 28.374306 0.000000 0.000000 0.000000 -3.478981 0.677473 -28.695272 -5.480441 -9.392865 -0.450563 -16.236685 11.318151 -16.803430 0.000000 0.000000 0.000000 7.125000 0.000000 0.000000 7.702127 12.637058 5.885066
0.768485 17.636299 -15.126517 -3.782252 7.391717 3.532420 0.000000 0.000000 0.000000 -12.405151 -5.532036 -7.128765 8.816880 16.687820 55.453796 -0.063037 -4.532854 1.106032 0.681646 5.278791 14.705476 0.000000 0.000000 0.000000 28.111558 3.802370 -12.833121 -0.903296 -6.056822 16.949331 -0.063411 -7.080695 -11.456542 -0.860051 -5.909049 16.522159 1.757810 -1.219066 4.491054 4.183438 -1.445954 0.533517 3.412769 -0.720513 -1.904942 -3.919841 -1.982384 -15.433629 -0.450983 -1.613363 23.741687 0.288552 -1.145176 10.158187 0.000000 0.000000 0.000000 1.477223 2.513072 -28.400692 16.504331 -26.197821 3.866980 -1.422526 11.075469 -42.273616 0.000000 0.000000 0.000000 -7.125000 0.000000 0.000000 -49.824855 65.521243 27.651270 0.000000 0.000000 0.000000 -3.607468 0.178519 -28.840778 -5.398003 -9.254396 -0.437181 -16.665615 11.612093 -16.944561 0.000000 0.000000 0.000000 7.125000 0.000000 0.000000 7.421238 12.447828 5.696361
0.747537 17.630101 -14.985628 -4.202560 7.117673 3.275200 0.000000 0.000000 0.000000 -11.647938 -5.222107 -8.487520 9.064176 16.848625 56.311407 -0.048219 -4.431395 -0.586755 0.669061 5.230894 14.568315 0.000000 0.000000 0.000000 28.767199 3.872591 -12.185617 -0.932693 -6.151704 17.225322 -0.096302 -6.960662 -11.939048 -0.764458 -5.583256 15.579881 2.116006 -0.985960 4.615893 4.139210 -1.103647 0.357541 3.150416 -0.551560 -2.179909 -3.984459 -1.981199 -14.994543 -0.221717 -1.673543 23.831867 0.376113 -1.152113 10.109777 0.000000 0.000000 0.000000 1.550596 2.424444 -28.490781 17.180325 -27.094073 4.169525 -0.187070 10.687465 -42.564524 0.000000 0.000000 0.000000 -7.125000 0.000000 0.000000 -49.188874 66.078075 27.816641 0.000000 0.000000 0.000000 -3.344397 0.131977 -27.720372 -5.512958 -9.447386 -0.455993 -17.144889 10.239935 -16.545407 0.000000 0.000000 0.000000 7.125000 0.000000 0.000000 7.090161 12.807866 5.384614
0.734022 17.617318 -14.832256 -4.050866 6.953205 2.895606 0.000000 0.000000 0.000000 -11.712539 -5.101918 -9.378712 9.237015 16.957856 56.906403 -0.020734 -4.562720 -2.360590 0.505114 4.555768 12.645731 0.000000 0.000000 0.000000 28.839220 3.545368 -11.323186 -0.964779 -6.253731 17.522495 -0.118303 -6.890536 -12.261079 -0.648921 -5.152904 14.345138 1.925095 -0.892490 4.544450 4.028161 -0.998308 0.428356 3.133069 -0.498027 -2.069726 -3.942417 -2.096378 -14.906696 -0.436120 -1.792055 24.141886 0.277402 -1.231269 10.205474 0.000000 0.000000 0.000000 1.520543 2.110393 -28.424889 17.795946 -27.895062 4.453460 1.447231 10.446291 -41.937719 0.000000 0.000000 0.000000 -7.125000 0.000000 0.000000 -46.612554 66.145982 26.148625 0.000000 0.000000 0.000000 -3.362316 -0.312908 -26.344527 -5.574557 -9.550665 -0.466018 -17.677193 8.728528 -16.974818 0.000000 0.000000 0.000000 7.125000 0.000000 0.000000 6.751174 12.308042 5.193821
0.717595 17.608382 -14.696241 -3.879686 6.573091 2.913155 0.000000 0.000000 0.000000 -11.763340 -5.053939 -10.664217 9.365791 17.037418 57.346719 0.025372 -4.458384 -3.958266 0.502830 4.542079 12.607594 0.000000 0.000000 0.000000 28.783639 3.776659 -10.955601 -1.009720 -6.393364 17.930195 -0.168312 -6.607250 -12.814033 -0.740427 -5.496350 15.329906 1.651918 -0.681268 4.362068 3.914818 -0.741535 0.437925 3.149825 -0.368346 -1.965586 -4.278053 -2.173876 -15.032203 0.156655 -1.961240 24.146852 0.519448 -1.269741 10.244420 0.000000 0.000000 0.000000 1.416095 1.530089 -28.205473 18.487596 -28.775715 4.782413 1.645168 9.603351 -41.896031 0.000000 0.000000 0.000000 -7.125000 0.000000 0.000000 -46.356150 66.175830 26.009644 0.000000 0.000000 0.000000 -3.379617 -1.152633 -27.783359 -5.482273 -9.395909 -0.450933 -18.177550 9.924937 -17.383897 0.000000 0.000000 0.000000 7.125000 0.000000 0.000000 6.436258 11.829532 5.012779
0.702927 17.589028 -14.558199 -4.095899 6.315718 2.635593 0.000000 0.000000 0.000000 -11.397140 -5.057301 -11.719303 9.446273 17.086440 57.620883 0.073220 -4.718142 -5.434466 0.522820 4.621384 12.833878 0.000000 0.000000 0.000000 29.180008 3.728904 -10.324895 -1.054767 -6.530000 18.330312 -0.214204 -6.326932 -13.280398 -0.849047 -5.872085 16.415111 1.805031 -0.472777 4.411850 3.815529 -0.450116 0.300952 2.945272 -0.223784 -2.148962 -3.879304 -2.224879 -14.749628 -0.194346 -2.056745 24.594482 0.316175 -1.322573 10.345237 0.000000 0.000000 0.000000 1.552002 1.624964 -28.422539 19.300185 -29.787712 5.180301 2.857987 8.949119 -41.743389 0.000000 0.000000 0.000000 -7.125000 0.000000 0.000000 -44.953870 66.433277 25.335240 0.000000 0.000000 0.000000 -3.125972 -1.236631 -26.375680 -5.689426 -9.743094 -0.485470 -18.391452 8.489819 -17.564538 0.000000 0.000000 0.000000 7.125000 0.000000 0.000000 6.302890 11.617796 4.935511
